# xmcd
#
# Track frame offsets: 
#        150
#        13566
#        28231
#        43027
#        56245
#        70609
#        85314
#        100317
#        115834
#        130183
#        142667
#        157020
#        170099
#        185144
#        198271
#
# Disc length: 2815 seconds
#
# Revision: 0
# Processed by: cddbd v1.5.2PL0 Copyright (c) Steve Scherf et al.
# Submitted via: ExactAudioCopy v1.3
#
DISCID=d20afd0f
DTITLE=Various Artist - Oh Sister, Best Of Southern Blues
DYEAR=2004
DGENRE=Blues
TTITLE0=Ada Brown and Fars Waller - That Ain't Right
TTITLE1=Clara Smith - Shipwrecked Blues
TTITLE2=Memphis Minnie - If You See My Rooster
TTITLE3=Alberta Hunter - Texas Moaner
TTITLE4=Bessie Smith - Saint Louis Blues
TTITLE5=Hattie Hart - Won't You Be Kind To Me
TTITLE6=Ethel Waters - Shake That Thing
TTITLE7=Lil Johnson - Take It Easy Greasy
TTITLE8=Ma Rainey - See See Rider Blues
TTITLE9=Ester Bigeou - West Indies Blues
TTITLE10=Billie Holiday - Fine And mellow
TTITLE11=Trixie Smith - My Daddy Rocks Me
TTITLE12=Bessie Smith - Back Water Blues
TTITLE13=Dinah Washington - Rich Man's Blues
TTITLE14=Bertha Chippie Hill - Pratt City Blues
EXTD=
EXTT0=
EXTT1=
EXTT2=
EXTT3=
EXTT4=
EXTT5=
EXTT6=
EXTT7=
EXTT8=
EXTT9=
EXTT10=
EXTT11=
EXTT12=
EXTT13=
EXTT14=
PLAYORDER=
